<?xml version="1.0" encoding="UTF-8" standalone="no"?>
<!DOCTYPE svg PUBLIC "-//W3C//DTD SVG 1.1//EN" "http://www.w3.org/Graphics/SVG/1.1/DTD/svg11.dtd">
<svg xmlns="http://www.w3.org/2000/svg" version="1.1" viewBox="0.00 0.00 206.00 85.00">
<path fill="#fbd1f1" d="
  M 100.86 0.00
  L 103.70 0.00
  C 93.86 8.01 106.61 11.63 102.60 16.83
  Q 101.14 18.72 99.43 20.53
  A 2.05 2.05 0.0 0 0 99.21 23.04
  Q 102.52 28.12 97.56 31.23
  A 1.36 1.36 0.0 0 0 97.27 33.29
  C 104.02 40.87 106.58 53.83 97.04 60.48
  Q 91.65 64.23 84.96 63.84
  Q 84.81 63.83 84.77 63.68
  Q 84.74 63.54 84.74 63.43
  Q 84.75 63.28 84.90 63.26
  C 89.40 62.56 94.47 61.24 97.45 57.77
  C 103.21 51.06 99.65 42.89 96.32 35.89
  C 95.04 33.19 96.54 30.64 98.00 28.28
  Q 98.28 27.83 97.99 27.39
  C 95.31 23.32 98.00 19.14 100.78 16.13
  A 1.29 1.28 -39.0 0 0 100.95 14.62
  L 97.84 9.28
  A 0.35 0.35 0.0 0 0 97.19 9.54
  C 98.48 15.02 96.34 15.74 92.19 18.18
  C 89.21 19.94 91.39 23.89 92.31 26.16
  A 1.50 1.49 57.1 0 1 91.96 27.80
  L 85.83 33.66
  A 0.46 0.46 0.0 0 1 85.06 33.42
  L 84.91 32.65
  A 1.62 1.61 -26.9 0 1 85.40 31.16
  L 89.21 27.62
  A 1.88 1.86 -35.2 0 0 89.61 25.40
  C 86.49 19.32 89.81 17.57 94.62 14.76
  A 1.56 1.55 57.7 0 0 95.12 12.54
  C 91.73 7.60 96.78 2.27 100.86 0.00
  Z"
/>
<path fill="#fbd1f1" d="
  M 138.77 23.27
  C 138.70 27.28 140.08 37.28 134.89 38.71
  C 123.48 41.86 125.32 30.55 125.47 24.02
  Q 125.50 22.84 124.27 22.65
  Q 123.69 22.57 123.60 23.15
  L 123.54 23.50
  A 0.61 0.61 0.0 0 0 124.03 24.19
  Q 124.46 24.27 124.80 24.52
  A 0.38 0.38 0.0 0 1 124.64 25.19
  L 123.67 25.37
  Q 123.06 25.48 122.94 24.87
  Q 122.70 23.71 122.98 22.55
  Q 123.14 21.85 123.86 21.86
  L 126.93 21.90
  Q 127.71 21.91 127.71 22.68
  L 127.80 34.38
  A 3.63 3.62 0.2 0 0 131.38 37.97
  L 132.49 37.99
  Q 137.04 38.06 137.03 33.51
  L 137.01 23.53
  A 0.95 0.94 -73.0 0 0 136.60 22.75
  Q 136.29 22.54 135.91 22.45
  A 0.36 0.35 -37.8 0 1 136.00 21.75
  L 140.26 21.78
  A 0.25 0.25 0.0 0 1 140.40 22.23
  Q 139.93 22.56 139.35 22.63
  Q 138.78 22.69 138.77 23.27
  Z"
/>
<path fill="#fbd1f1" d="
  M 107.42 24.23
  Q 107.49 24.36 107.54 24.47
  Q 107.67 24.74 107.50 24.99
  Q 107.06 25.63 106.19 25.50
  Q 105.50 25.39 105.49 24.69
  L 105.48 22.78
  Q 105.47 22.24 106.00 22.09
  C 110.29 20.86 112.44 27.19 114.04 30.17
  C 115.26 32.47 114.86 34.73 114.82 37.20
  Q 114.81 37.78 115.35 37.98
  L 116.37 38.35
  A 0.28 0.28 0.0 0 1 116.27 38.90
  L 110.80 38.81
  A 0.25 0.25 0.0 0 1 110.73 38.32
  L 111.93 37.93
  Q 112.37 37.79 112.39 37.33
  C 112.51 34.58 112.84 32.38 111.34 29.87
  Q 109.66 27.04 108.05 24.20
  A 0.38 0.24 29.8 0 0 107.42 24.23
  Z"
/>
<path fill="#fbd1f1" d="
  M 117.21 22.90
  L 116.72 22.77
  A 0.40 0.40 0.0 0 1 116.82 21.98
  L 120.94 21.99
  Q 121.85 21.99 121.05 22.41
  L 120.01 22.96
  A 2.07 2.03 -88.0 0 0 119.19 23.74
  L 115.46 30.15
  A 0.43 0.43 0.0 0 1 114.88 30.31
  L 114.62 30.16
  Q 114.51 30.10 114.57 29.99
  L 117.61 23.75
  Q 117.94 23.08 117.21 22.90
  Z"
/>
<path fill="#fbd1f1" d="
  M 146.35 25.88
  A 0.34 0.34 0.0 0 0 145.69 26.02
  L 145.89 38.00
  A 0.85 0.84 -88.7 0 1 145.00 38.86
  L 142.39 38.73
  Q 141.82 38.70 141.85 38.14
  L 141.95 36.24
  Q 141.98 35.70 142.51 35.72
  L 143.80 35.76
  Q 144.38 35.79 144.38 35.20
  L 144.37 23.68
  A 0.74 0.73 12.9 0 0 143.95 23.02
  L 142.70 22.42
  Q 141.81 22.00 142.80 22.01
  L 146.76 22.05
  Q 147.19 22.05 147.36 22.45
  L 152.57 34.69
  Q 152.83 35.31 153.09 34.69
  L 157.16 25.01
  Q 157.94 23.16 157.85 25.16
  C 157.67 29.08 154.63 34.43 153.23 37.88
  Q 152.30 40.15 151.35 37.89
  L 146.35 25.88
  Z
  M 143.25 36.89
  Q 142.80 36.96 142.63 37.37
  A 0.36 0.36 0.0 0 0 142.91 37.87
  Q 144.09 38.05 144.57 36.99
  A 0.32 0.31 -78.2 0 0 144.28 36.54
  Q 144.07 36.54 143.87 36.63
  Q 143.28 36.89 143.25 36.89
  Z"
/>
<path fill="#fbd1f1" d="
  M 161.12 23.50
  L 161.14 37.45
  A 0.74 0.74 0.0 0 0 161.71 38.16
  L 162.51 38.34
  Q 163.88 38.65 162.49 38.81
  Q 159.99 39.08 157.54 38.74
  Q 156.11 38.55 157.51 38.31
  Q 157.91 38.24 158.27 38.00
  Q 158.69 37.73 158.69 37.24
  L 158.71 22.73
  Q 158.71 22.19 159.25 22.09
  Q 160.89 21.77 162.48 22.05
  Q 163.60 22.25 162.51 22.58
  L 161.59 22.86
  Q 161.12 23.01 161.12 23.50
  Z"
/>
<path fill="#fbd1f1" d="
  M 20.68 45.68
  Q 31.08 41.39 42.17 39.84
  Q 46.00 39.31 51.23 38.13
  C 62.16 35.66 72.99 37.29 84.01 38.11
  C 96.11 39.02 95.65 47.74 92.39 56.50
  Q 90.89 60.54 86.27 61.19
  Q 78.44 62.30 70.50 62.47
  Q 46.93 62.98 23.77 58.62
  Q 19.69 57.85 16.42 55.36
  C 11.66 51.74 17.65 46.93 20.68 45.68
  Z
  M 31.55 57.37
  C 36.71 58.76 42.18 59.32 47.51 59.61
  Q 49.76 59.72 50.63 57.65
  C 54.04 49.50 61.57 45.64 68.21 40.64
  Q 70.00 39.30 67.77 39.08
  C 58.59 38.18 47.42 40.06 39.33 45.10
  C 34.88 47.87 30.65 51.50 31.16 56.92
  Q 31.20 57.28 31.55 57.37
  Z
  M 81.15 51.30
  Q 80.28 50.09 79.98 48.62
  A 0.91 0.85 56.6 0 1 80.09 47.98
  L 83.14 43.05
  Q 84.27 41.24 82.21 40.68
  C 79.26 39.89 75.57 39.01 72.55 39.40
  C 69.22 39.82 66.13 43.43 63.64 45.60
  C 59.33 49.36 54.99 50.79 52.30 56.96
  Q 50.96 60.03 53.48 60.25
  Q 68.65 61.60 83.83 59.65
  A 1.02 1.02 0.0 0 0 84.71 58.78
  C 85.02 56.65 82.53 55.91 81.03 55.10
  A 0.55 0.54 35.9 0 1 80.89 54.24
  L 81.94 53.16
  A 0.79 0.79 0.0 0 1 83.10 53.18
  Q 84.50 54.73 86.51 55.30
  A 0.70 0.69 -69.6 0 1 86.94 56.26
  Q 86.71 56.76 86.76 57.35
  A 0.84 0.83 -13.7 0 0 87.90 58.04
  Q 89.65 57.33 90.14 55.71
  C 91.75 50.33 94.27 44.96 87.77 41.46
  A 1.56 1.55 -68.1 0 0 85.53 42.42
  C 84.65 45.63 82.52 47.62 81.87 51.14
  A 0.40 0.40 0.0 0 1 81.15 51.30
  Z
  M 41.73 41.24
  C 36.18 42.35 21.08 46.05 17.57 50.31
  C 14.25 54.33 25.84 57.10 27.81 57.21
  A 1.51 1.50 -84.1 0 0 29.37 55.93
  C 30.29 49.78 36.46 45.52 41.69 42.88
  Q 42.43 42.51 42.48 41.93
  A 0.64 0.63 87.3 0 0 41.73 41.24
  Z"
/>
<path fill="#fbd1f1" d="
  M 130.76 49.49
  L 125.86 61.56
  Q 125.63 62.13 125.04 62.31
  Q 123.95 62.64 122.81 62.43
  Q 122.26 62.33 122.28 61.77
  L 122.34 59.89
  Q 122.36 59.24 122.99 59.11
  Q 123.82 58.94 124.27 59.57
  A 0.53 0.52 38.5 0 0 125.18 59.47
  L 130.70 46.49
  Q 131.89 43.71 132.86 46.58
  C 134.35 50.98 136.28 55.55 137.78 60.37
  Q 138.18 61.67 138.95 61.83
  Q 141.70 62.41 138.89 62.50
  Q 137.00 62.55 134.25 62.38
  Q 134.10 62.37 134.08 62.23
  Q 134.06 62.11 134.17 62.05
  L 135.20 61.58
  Q 135.70 61.35 135.52 60.82
  L 134.09 56.72
  Q 133.93 56.25 133.44 56.25
  L 129.49 56.22
  Q 129.23 56.22 129.30 55.98
  L 129.45 55.50
  Q 129.57 55.10 129.98 55.10
  L 132.83 55.12
  A 0.54 0.54 0.0 0 0 133.34 54.39
  L 131.52 49.50
  Q 131.15 48.53 130.76 49.49
  Z
  M 123.1600 61.6497
  A 0.94 0.56 128.1 0 0 124.1807 61.2555
  A 0.94 0.56 128.1 0 0 124.3200 60.1703
  A 0.94 0.56 128.1 0 0 123.2993 60.5645
  A 0.94 0.56 128.1 0 0 123.1600 61.6497
  Z"
/>
<path fill="#fbd1f1" d="
  M 141.70 60.98
  Q 141.80 61.14 141.85 61.36
  A 0.48 0.48 0.0 0 0 142.76 61.44
  L 149.02 46.78
  Q 150.25 43.89 151.34 46.84
  L 156.49 60.87
  A 1.19 1.18 -2.4 0 0 157.30 61.61
  L 158.30 61.89
  Q 159.41 62.19 158.27 62.35
  Q 155.46 62.74 153.26 62.48
  Q 151.50 62.28 153.26 61.80
  Q 153.55 61.72 153.76 61.49
  Q 154.12 61.10 153.94 60.61
  L 152.53 56.77
  Q 152.34 56.24 151.77 56.24
  L 147.95 56.24
  Q 147.64 56.24 147.75 55.95
  L 148.03 55.22
  A 0.26 0.25 -77.0 0 1 148.28 55.06
  L 151.38 55.16
  A 0.42 0.42 0.0 0 0 151.79 54.60
  L 150.05 49.58
  Q 149.63 48.39 149.16 49.56
  L 144.23 61.72
  A 0.83 0.80 -0.4 0 1 143.76 62.18
  Q 142.61 62.62 141.44 62.48
  Q 140.75 62.40 140.89 61.73
  Q 141.09 60.77 140.86 59.80
  A 0.64 0.64 0.0 0 1 141.48 59.01
  L 142.25 59.02
  A 0.93 0.75 -54.3 0 1 142.34 60.64
  Q 142.24 60.69 141.90 60.66
  Q 141.47 60.62 141.70 60.98
  Z"
/>
<path fill="#fbd1f1" d="
  M 161.10 60.64
  Q 161.02 62.69 162.16 61.07
  L 166.95 54.22
  Q 167.28 53.74 166.95 53.25
  L 162.51 46.81
  Q 162.24 46.43 161.78 46.35
  Q 161.21 46.25 160.81 45.99
  Q 160.10 45.52 160.95 45.52
  L 166.48 45.48
  Q 167.76 45.48 166.64 46.10
  L 165.82 46.56
  Q 165.29 46.85 165.63 47.35
  L 174.92 61.01
  A 1.62 1.56 79.4 0 0 175.83 61.66
  L 176.59 61.86
  Q 178.21 62.29 176.54 62.30
  L 171.06 62.33
  A 0.30 0.30 0.0 0 1 170.94 61.76
  Q 171.36 61.58 171.69 61.24
  Q 172.02 60.90 171.75 60.51
  L 168.21 55.25
  Q 167.95 54.86 167.69 55.26
  L 163.49 61.82
  Q 163.20 62.28 162.65 62.31
  L 160.91 62.40
  A 0.61 0.61 0.0 0 1 160.27 61.78
  L 160.27 59.44
  A 0.59 0.59 0.0 0 1 160.94 58.86
  L 161.99 58.99
  A 0.36 0.36 0.0 0 1 162.11 59.66
  Q 161.12 60.19 161.10 60.64
  Z"
/>
<path fill="#fbd1f1" d="
  M 110.80 61.51
  L 111.77 61.85
  A 0.27 0.27 0.0 0 1 111.68 62.37
  L 106.55 62.33
  A 0.25 0.25 0.0 0 1 106.52 61.84
  Q 107.11 61.76 107.57 61.41
  Q 108.01 61.08 108.01 60.53
  L 108.01 47.28
  A 0.93 0.91 23.4 0 0 107.75 46.64
  Q 107.33 46.19 106.75 46.08
  Q 105.23 45.78 106.74 45.60
  Q 109.26 45.30 111.06 45.51
  Q 113.75 45.82 111.05 45.97
  Q 110.37 46.01 110.37 47.75
  Q 110.33 54.29 110.32 60.82
  Q 110.32 61.33 110.80 61.51
  Z"
/>
<path fill="#fbd1f1" d="
  M 120.34 61.25
  L 120.38 60.75
  Q 120.40 60.48 120.13 60.42
  Q 119.29 60.24 119.36 59.38
  Q 119.40 58.89 119.85 58.70
  Q 120.20 58.56 120.55 58.77
  Q 121.04 59.06 121.06 59.63
  L 121.15 61.76
  Q 121.18 62.45 120.49 62.41
  L 117.46 62.25
  Q 116.89 62.22 116.54 61.76
  L 111.36 54.80
  A 1.44 1.44 0.0 0 1 111.45 52.97
  L 116.60 47.28
  Q 116.98 46.86 116.59 46.46
  Q 116.41 46.27 116.16 46.21
  A 0.34 0.34 0.0 0 1 116.25 45.54
  L 120.52 45.53
  A 0.25 0.25 0.0 0 1 120.61 46.02
  L 119.21 46.55
  A 0.64 0.56 -75.7 0 0 118.98 46.71
  L 113.34 52.73
  A 0.70 0.70 0.0 0 0 113.30 53.63
  L 119.42 61.53
  A 0.51 0.51 0.0 0 0 120.34 61.25
  Z"
/>
<path fill="#fbd1f1" d="
  M 172.08 46.63
  L 170.77 45.97
  A 0.25 0.25 0.0 0 1 170.88 45.50
  L 175.68 45.50
  A 0.25 0.25 0.0 0 1 175.76 45.99
  L 174.18 46.54
  A 0.25 0.25 0.0 0 0 174.05 46.64
  L 170.36 52.12
  A 0.25 0.25 0.0 0 1 169.96 52.14
  L 169.46 51.53
  A 0.25 0.25 0.0 0 1 169.45 51.24
  L 172.18 46.98
  A 0.25 0.25 0.0 0 0 172.08 46.63
  Z"
/>
<path fill="#fbd1f1" d="
  M 34.01 68.24
  Q 33.80 70.29 33.98 72.42
  Q 34.04 73.05 35.77 72.76
  Q 37.49 72.47 37.50 74.22
  L 37.50 79.58
  Q 37.50 81.17 35.92 81.13
  L 32.14 81.05
  A 0.66 0.66 0.0 0 1 31.49 80.39
  L 31.47 75.50
  A 0.49 0.48 -72.5 0 1 32.23 75.10
  Q 34.36 76.61 33.85 79.25
  Q 33.75 79.74 34.24 79.84
  L 34.60 79.92
  A 0.44 0.44 0.0 0 0 35.13 79.48
  L 35.09 74.72
  A 0.68 0.67 1.9 0 0 34.47 74.06
  L 32.45 73.90
  A 1.07 1.06 2.6 0 1 31.47 72.83
  L 31.49 67.49
  Q 31.49 66.72 32.26 66.72
  L 36.82 66.73
  Q 37.40 66.73 37.41 67.31
  L 37.52 71.12
  Q 37.53 71.52 37.13 71.51
  L 35.48 71.47
  A 0.36 0.36 0.0 0 1 35.13 71.11
  L 35.11 68.52
  Q 35.11 68.03 34.63 67.98
  L 34.36 67.95
  Q 34.04 67.92 34.01 68.24
  Z"
/>
<path fill="#fbd1f1" d="
  M 49.89 72.98
  L 49.25 76.46
  Q 49.16 76.95 49.25 77.44
  L 49.85 80.45
  A 0.55 0.55 0.0 0 1 49.29 81.11
  L 46.50 81.03
  Q 45.93 81.02 46.20 80.52
  Q 46.52 79.92 47.10 79.61
  Q 47.48 79.41 47.48 78.98
  L 47.48 73.24
  Q 47.49 72.74 46.98 72.73
  Q 46.22 72.73 45.95 72.03
  Q 45.72 71.41 46.37 71.41
  L 56.23 71.38
  Q 57.08 71.38 57.09 72.23
  L 57.14 79.29
  A 1.23 1.22 88.0 0 0 58.43 80.50
  L 58.88 80.48
  Q 60.52 80.40 60.52 78.76
  L 60.52 68.48
  A 0.60 0.58 10.1 0 0 60.11 67.91
  Q 59.94 67.85 59.75 67.88
  Q 59.59 67.91 59.16 67.25
  Q 59.06 67.10 59.22 67.00
  Q 59.51 66.82 59.60 66.81
  Q 61.06 66.63 62.54 66.76
  Q 63.00 66.81 63.00 67.27
  L 62.97 70.84
  A 0.63 0.63 0.0 0 0 63.59 71.48
  L 65.26 71.49
  Q 66.51 71.51 66.51 72.76
  L 66.51 79.92
  Q 66.51 81.10 65.33 81.10
  L 55.25 81.06
  A 0.56 0.55 0.5 0 1 54.69 80.50
  L 54.71 73.27
  Q 54.71 72.77 54.21 72.77
  L 53.93 72.77
  Q 53.48 72.77 53.48 73.22
  L 53.50 80.56
  A 0.56 0.56 0.0 0 1 52.95 81.12
  L 51.76 81.13
  A 0.86 0.85 -80.3 0 1 50.95 79.98
  Q 52.25 76.42 50.64 72.88
  A 0.40 0.39 -52.2 0 0 49.89 72.98
  Z
  M 63.13 79.07
  Q 63.15 79.36 63.18 79.46
  A 0.35 0.29 43.6 0 0 63.80 79.50
  Q 64.00 78.02 64.72 76.72
  A 0.63 0.62 49.9 0 0 64.76 76.22
  L 63.63 72.90
  A 0.10 0.10 0.0 0 0 63.45 72.89
  Q 61.87 75.85 63.05 78.69
  Q 63.12 78.87 63.13 79.07
  Z"
/>
<path fill="#fbd1f1" d="
  M 89.75 68.77
  L 89.75 78.99
  Q 89.74 79.51 90.20 79.76
  Q 90.63 80.01 90.89 80.46
  Q 91.25 81.09 90.52 81.09
  L 85.03 81.06
  Q 83.76 81.06 83.76 79.78
  L 83.77 72.94
  Q 83.77 71.79 84.89 71.51
  Q 85.81 71.29 86.72 71.41
  Q 87.48 71.52 87.47 70.74
  L 87.39 67.17
  Q 87.38 66.72 87.83 66.72
  L 90.69 66.73
  A 0.38 0.38 0.0 0 1 91.00 67.34
  Q 90.64 67.81 90.12 68.13
  Q 89.75 68.35 89.75 68.77
  Z
  M 86.67 73.26
  Q 85.15 76.26 86.62 79.30
  Q 86.89 79.86 87.16 79.30
  Q 88.61 76.29 87.19 73.27
  Q 86.94 72.73 86.67 73.26
  Z"
/>
<path fill="#fbd1f1" d="
  M 139.75 69.05
  L 139.72 78.99
  Q 139.72 79.43 140.11 79.62
  Q 140.64 79.88 140.92 80.42
  A 0.47 0.47 0.0 0 1 140.49 81.10
  L 134.39 81.03
  A 0.64 0.64 0.0 0 1 133.76 80.39
  L 133.75 72.15
  A 0.64 0.63 88.1 0 1 134.34 71.51
  L 136.85 71.34
  A 0.58 0.57 88.9 0 0 137.39 70.77
  L 137.41 67.29
  Q 137.41 66.74 137.96 66.73
  L 140.48 66.70
  A 0.48 0.47 9.6 0 1 140.93 67.33
  Q 140.73 67.92 140.21 68.23
  Q 139.75 68.51 139.75 69.05
  Z
  M 136.79 79.46
  Q 137.02 79.90 137.20 79.43
  Q 138.33 76.38 137.27 73.30
  Q 137.03 72.60 136.70 73.26
  Q 135.15 76.39 136.79 79.46
  Z"
/>
<rect fill="#fbd1f1" x="-1.16" y="-1.10" transform="translate(144.45,69.20) rotate(-40.5)" width="2.32" height="2.20" rx="0.26"/>
<path fill="#fbd1f1" d="
  M 71.54 73.24
  L 71.51 79.25
  Q 71.51 79.65 71.91 79.71
  Q 72.60 79.82 72.74 80.51
  Q 72.85 81.08 72.28 81.07
  L 68.21 81.07
  A 0.38 0.37 -65.4 0 1 67.97 80.41
  L 68.67 79.78
  Q 69.10 79.41 69.10 78.85
  L 69.12 73.66
  Q 69.12 73.17 68.74 72.88
  L 67.97 72.30
  A 0.51 0.50 63.4 0 1 68.27 71.39
  L 74.21 71.41
  Q 75.00 71.41 75.03 72.21
  L 75.15 75.43
  Q 75.19 76.31 74.30 76.31
  L 73.90 76.31
  Q 72.96 76.31 73.13 75.39
  Q 73.41 73.95 72.40 72.90
  A 0.50 0.50 0.0 0 0 71.54 73.24
  Z"
/>
<path fill="#fbd1f1" d="
  M 79.36 72.89
  Q 78.54 74.09 76.98 73.83
  Q 76.48 73.75 76.48 73.23
  L 76.48 71.95
  Q 76.48 71.37 77.05 71.38
  L 81.72 71.44
  A 0.78 0.78 0.0 0 1 82.50 72.22
  L 82.48 80.37
  A 0.72 0.72 0.0 0 1 81.76 81.09
  L 77.28 81.08
  Q 76.48 81.07 76.48 80.28
  L 76.48 75.96
  Q 76.48 75.16 77.29 75.13
  L 79.49 75.05
  A 0.66 0.65 -78.4 0 0 80.07 74.66
  Q 80.51 73.73 79.87 72.87
  A 0.32 0.31 -46.5 0 0 79.36 72.89
  Z
  M 79.4163 79.5386
  A 1.46 1.09 92.5 0 0 80.5690 78.1275
  A 1.46 1.09 92.5 0 0 79.5437 76.6214
  A 1.46 1.09 92.5 0 0 78.3910 78.0325
  A 1.46 1.09 92.5 0 0 79.4163 79.5386
  Z"
/>
<path fill="#fbd1f1" d="
  M 98.3966 80.1005
  A 1.01 1.01 0.0 0 1 97.3831 81.1070
  L 93.3831 81.0930
  A 1.01 1.01 0.0 0 1 92.3766 80.0795
  L 92.4034 72.4195
  A 1.01 1.01 0.0 0 1 93.4169 71.4130
  L 97.4169 71.4270
  A 1.01 1.01 0.0 0 1 98.4234 72.4405
  L 98.3966 80.1005
  Z
  M 95.88 78.47
  Q 97.41 75.75 95.52 73.15
  Q 95.21 72.72 94.99 73.21
  Q 94.08 75.23 94.48 78.20
  Q 94.79 80.43 95.88 78.47
  Z"
/>
<path fill="#fbd1f1" d="
  M 108.25 85.00
  L 105.69 85.00
  L 105.72 73.45
  Q 105.73 72.91 105.23 72.69
  L 104.91 72.55
  A 0.61 0.61 0.0 0 1 105.16 71.38
  L 111.14 71.42
  A 0.73 0.72 0.4 0 1 111.86 72.14
  L 111.86 80.37
  A 0.72 0.72 0.0 0 1 111.13 81.09
  L 108.71 81.07
  Q 108.23 81.07 108.23 81.55
  L 108.25 85.00
  Z
  M 108.38 79.27
  A 0.32 0.32 0.0 0 0 108.97 79.43
  Q 110.77 76.32 109.03 73.20
  Q 108.74 72.69 108.54 73.24
  L 107.51 76.05
  Q 107.30 76.63 107.68 77.12
  Q 108.40 78.05 108.38 79.27
  Z"
/>
<path fill="#fbd1f1" d="
  M 119.18 80.06
  A 1.03 1.03 0.0 0 1 118.15 81.09
  L 114.25 81.09
  A 1.03 1.03 0.0 0 1 113.22 80.06
  L 113.22 72.44
  A 1.03 1.03 0.0 0 1 114.25 71.41
  L 118.15 71.41
  A 1.03 1.03 0.0 0 1 119.18 72.44
  L 119.18 80.06
  Z
  M 117.43 76.12
  L 116.45 73.27
  Q 116.17 72.45 115.80 73.23
  Q 114.36 76.36 115.86 79.48
  Q 116.34 80.50 116.50 79.38
  Q 116.69 78.00 117.37 76.76
  Q 117.54 76.45 117.43 76.12
  Z"
/>
<path fill="#fbd1f1" d="
  M 123.75 73.23
  L 123.73 79.02
  Q 123.73 79.62 124.27 79.89
  Q 124.65 80.09 124.85 80.47
  Q 125.15 81.05 124.49 81.06
  L 120.37 81.12
  A 0.39 0.39 0.0 0 1 120.04 80.52
  Q 120.36 79.99 120.92 79.75
  Q 121.25 79.61 121.25 79.24
  L 121.28 73.49
  Q 121.28 72.92 120.73 72.75
  Q 120.19 72.60 120.01 72.10
  Q 119.73 71.37 120.51 71.38
  L 126.47 71.42
  A 0.81 0.81 0.0 0 1 127.28 72.22
  L 127.31 75.99
  Q 127.31 76.28 127.01 76.27
  L 125.47 76.22
  Q 125.19 76.22 125.27 75.95
  Q 125.77 74.08 124.44 72.91
  A 0.42 0.42 0.0 0 0 123.75 73.23
  Z"
/>
<path fill="#fbd1f1" d="
  M 143.73 79.02
  L 143.74 73.33
  Q 143.74 72.87 143.31 72.72
  L 143.00 72.61
  Q 141.55 72.10 142.84 71.52
  Q 143.55 71.20 145.48 71.44
  A 0.65 0.64 3.5 0 1 146.05 72.08
  L 146.08 79.25
  A 0.77 0.76 10.7 0 0 146.57 79.96
  Q 146.94 80.10 147.15 80.44
  Q 147.60 81.13 146.78 81.12
  L 142.82 81.07
  A 0.39 0.38 -1.6 0 1 142.44 80.72
  Q 142.35 79.94 143.02 79.84
  Q 143.73 79.74 143.73 79.02
  Z"
/>
<path fill="#fbd1f1" d="
  M 154.65 80.04
  A 1.08 1.08 0.0 0 1 153.57 81.12
  L 149.71 81.12
  A 1.08 1.08 0.0 0 1 148.63 80.04
  L 148.63 72.48
  A 1.08 1.08 0.0 0 1 149.71 71.40
  L 153.57 71.40
  A 1.08 1.08 0.0 0 1 154.65 72.48
  L 154.65 80.04
  Z
  M 151.87 79.39
  C 153.17 76.80 152.89 75.92 151.99 73.30
  Q 151.70 72.46 151.30 73.26
  Q 149.76 76.35 151.38 79.39
  Q 151.63 79.86 151.87 79.39
  Z"
/>
<path fill="#fbd1f1" d="
  M 157.87 73.26
  Q 157.73 73.68 157.76 74.15
  Q 157.81 74.72 158.37 74.88
  Q 159.40 75.17 160.50 75.04
  A 0.99 0.99 0.0 0 1 161.60 76.03
  L 161.59 80.02
  Q 161.59 81.13 160.48 81.12
  L 156.32 81.07
  A 0.69 0.69 0.0 0 1 155.65 80.53
  Q 155.36 79.20 155.61 77.87
  A 0.53 0.52 -65.2 0 1 156.45 77.56
  Q 157.17 78.11 157.61 78.88
  Q 158.71 80.79 159.25 78.77
  Q 159.42 78.12 159.10 76.76
  Q 158.98 76.27 158.48 76.27
  L 156.46 76.25
  A 0.90 0.90 0.0 0 1 155.56 75.36
  L 155.51 72.48
  A 1.03 1.03 0.0 0 1 156.52 71.43
  L 160.38 71.39
  Q 161.39 71.38 161.57 72.38
  L 161.66 72.88
  Q 161.79 73.61 161.06 73.77
  Q 159.52 74.11 158.60 73.11
  Q 158.11 72.57 157.87 73.26
  Z"
/>
<path fill="#fbd1f1" d="
  M 173.00 73.23
  L 173.01 74.45
  A 0.68 0.67 -0.4 0 0 173.70 75.12
  L 175.56 75.08
  A 1.07 1.07 0.0 0 1 176.65 76.16
  L 176.59 80.28
  A 0.86 0.85 0.7 0 1 175.72 81.12
  L 171.30 81.06
  A 0.55 0.54 -1.1 0 1 170.76 80.55
  L 170.61 78.21
  Q 170.56 77.52 171.26 77.53
  Q 171.56 77.53 171.84 77.69
  C 172.43 78.03 172.88 79.36 173.53 79.89
  Q 174.08 80.34 174.18 79.64
  Q 174.41 78.15 174.32 76.74
  Q 174.27 76.02 171.10 76.30
  Q 170.75 76.33 170.74 75.97
  L 170.70 71.88
  A 0.36 0.36 0.0 0 1 171.05 71.51
  L 175.64 71.35
  Q 176.46 71.33 176.54 72.14
  L 176.65 73.25
  A 0.60 0.60 0.0 0 1 175.83 73.87
  Q 175.50 73.74 175.16 73.86
  A 0.76 0.74 63.1 0 1 174.28 73.56
  Q 174.02 73.17 173.66 72.90
  Q 172.99 72.40 173.00 73.23
  Z"
/>
<path fill="#fbd1f1" d="
  M 41.81 79.84
  Q 42.12 79.79 42.30 79.56
  A 1.70 1.05 -38.9 0 1 44.87 79.24
  L 45.00 80.39
  Q 45.08 81.11 44.36 81.10
  L 39.50 81.07
  A 0.56 0.56 0.0 0 1 38.95 80.51
  L 38.95 72.17
  A 0.63 0.63 0.0 0 1 39.58 71.54
  L 44.20 71.54
  Q 44.85 71.54 44.86 72.19
  L 44.92 76.45
  Q 44.92 77.08 44.34 77.30
  Q 43.16 77.73 41.94 77.51
  A 0.59 0.59 0.0 0 0 41.25 78.05
  L 41.14 79.21
  Q 41.07 79.95 41.81 79.84
  Z
  M 43.05 73.97
  A 1.04 1.04 0.0 0 0 41.11 73.44
  Q 40.32 74.82 41.44 75.88
  Q 41.81 76.24 42.17 75.88
  Q 43.04 75.04 43.05 73.97
  Z"
/>
<path fill="#fbd1f1" d="
  M 165.73 78.02
  L 165.68 79.24
  A 0.57 0.57 0.0 0 0 166.75 79.52
  Q 167.39 78.33 168.93 78.77
  Q 169.34 78.88 169.38 79.31
  L 169.47 80.44
  Q 169.52 81.16 168.80 81.15
  L 163.98 81.06
  Q 163.41 81.05 163.41 80.48
  L 163.40 72.55
  Q 163.40 71.50 164.45 71.50
  L 168.06 71.51
  Q 169.36 71.51 169.37 72.81
  L 169.40 76.17
  Q 169.41 77.51 168.08 77.52
  L 166.23 77.52
  Q 165.74 77.53 165.73 78.02
  Z
  M 165.92 75.93
  Q 166.34 76.35 166.71 75.88
  L 167.31 75.09
  A 1.19 1.19 0.0 0 0 166.68 73.21
  Q 165.15 72.78 165.36 74.75
  Q 165.44 75.42 165.92 75.93
  Z"
/>
</svg>
